<svg xmlns="http://www.w3.org/2000/svg" viewBox="0 0 32 32"><path fill="#1f6f43" d="M3 5.5A2.5 2.5 0 0 1 5.5 3H14l3 3h9.5A2.5 2.5 0 0 1 29 8.5V11H9.2a3 3 0 0 0-2.8 1.9L2.8 22V5.5z"/><path fill="#2f8b58" d="M7.4 13.1A2 2 0 0 1 9.2 12h19.2a1.5 1.5 0 0 1 1.4 2.1l-5 12A3 3 0 0 1 22 28H4.9a2 2 0 0 1-1.9-2.7l4.4-12.2z"/><rect x="11" y="15" width="12" height="9" rx="1" fill="#fff"/><path stroke="#1f6f43" stroke-width="1.2" d="M15 15v9m4-9v9m-8-6h12m-12 3h12"/><path fill="#fff" d="M6.3 16.1h5v-2.4l4 3.8-4 3.8v-2.4h-5z"/></svg>